<svg
    version="1.1"
    id="Layer_1"
    xmlns="http://www.w3.org/2000/svg"
    xmlns:xlink="http://www.w3.org/1999/xlink"
    viewBox="0 0 64 64"
    enable-background="new 0 0 64 64"
    xml:space="preserve"
    class="w-8 h-8 cursor-pointer"
>
    <path
        fill="#FFFFFF"
        stroke="#2563EB"
        stroke-width="2"
        d="M32,2C23.178,2,16,9.178,16,18c0,1.531,0.215,3.014,0.61,4.414C12.98,24.941,10,28.256,10,32
        c0,5.523,4.477,10,10,10h2c0.553,0,1,0.447,1,1s-0.447,1-1,1H20c-3.314,0-6,2.686-6,6s2.686,6,6,6h24c3.314,0,6-2.686,6-6
        s-2.686-6-6-6h-2c-0.553,0-1-0.447-1-1s0.447-1,1-1h2c5.523,0,10-4.477,10-10c0-3.744-2.98-7.059-6.61-8.586
        C47.785,21.014,48,19.531,48,18c0-8.822-7.178-16-16-16c-3.064,0-5.904,0.88-8.32,2.391C30.237,3.31,31.096,2,32,2z"
    />
    <path
        fill="#FFFFFF"
        stroke="#2563EB"
        stroke-width="2"
        d="M32,62c-3.313,0-6-2.687-6-6s2.687-6,6-6s6,2.687,6,6S35.313,62,32,62z"
    />
    <path
        fill="#FFFFFF"
        stroke="#2563EB"
        stroke-width="2"
        d="M42,58c-2.209,0-4-1.791-4-4s1.791-4,4-4s4,1.791,4,4S44.209,58,42,58z"
    />
    <path
        fill="#FFFFFF"
        stroke="#2563EB"
        stroke-width="2"
        d="M22,58c-2.209,0-4-1.791-4-4s1.791-4,4-4s4,1.791,4,4S24.209,58,22,58z"
    />
    <path
        fill="#FFFFFF"
        stroke="#2563EB"
        stroke-width="2"
        d="M32,50c-2.209,0-4-1.791-4-4s1.791-4,4-4s4,1.791,4,4S34.209,50,32,50z"
    />
    <path
        fill="#FFFFFF"
        stroke="#2563EB"
        stroke-width="2"
        d="M48,38c-3.313,0-6-2.687-6-6s2.687-6,6-6s6,2.687,6,6S51.313,38,48,38z"
    />
    <path
        fill="#FFFFFF"
        stroke="#2563EB"
        stroke-width="2"
        d="M16,38c-3.313,0-6-2.687-6-6s2.687-6,6-6s6,2.687,6,6S19.313,38,16,38z"
    />
</svg>
